<svg version="1.1" xmlns="http://www.w3.org/2000/svg" width="129" height="182" viewBox="0 0 129 182"><path stroke="none" fill="black" fill-rule="evenodd" d="M41.0,90.91901725415009L41.0,61.83803450830019L58.75,62.1700694684457C79.14894912326149,62.551656187271185 81.5775574325008,63.29145836232381 85.10047415240578,70.19694560876647C87.67446730108841,75.24238899385394 87.31742920595059,82.73950132204975 84.30861361857899,86.824491663965C82.46735984611338,89.32431382292545 77.85511392241965,92.20012335547418 73.70091229992735,93.43856408666389C72.17265009133725,93.8941659902423 72.45724158531215,94.46256641537622 75.59144724755267,97.2144354345811C78.77391038422535,100.00867507752481 89.2597554389418,114.9073786593116 90.71744062703719,118.70604536826454C91.07850937077166,119.6469754316753 89.98146277539334,120.0 86.69639322499414,120.0L82.17880884161951,120.0L76.45501840014546,110.92871138825407C73.30693365733474,105.9395026517938 69.27606698149904,100.3145026517938 67.49753689828836,98.42871138825407C64.36357112822125,95.10573961217023 64.02848144639435,95.0 56.631922918952654,95.0L49.0,95.0L49.0,107.5L49.0,120.0L45.0,120.0L41.0,120.0L41.0,90.91901725415009zM73.4516272322147,86.5846581000921C77.42489006313548,84.92452288889626 79.01218085880342,82.40142933541232 78.96819662812953,77.81574145408933C78.90008614252109,70.71470947830362 75.32070890291897,69.0 60.56574145408934,69.0L49.0,69.0L49.0,78.5L49.0,88.0L59.53211863089645,88.0C66.35178865123228,88.0 71.25825260000116,87.50110853723511 73.4516272322147,86.5846581000921z"/></svg>