<svg version="1.1" xmlns="http://www.w3.org/2000/svg" width="129" height="182" viewBox="0 0 129 182"><path stroke="none" fill="black" fill-rule="evenodd" d="M57.639546840321906,118.53013680030122C54.18777687988408,116.18770243329168 54.0,116.16190569428508 54.0,118.03013680030122C54.0,119.61474236186173 53.315484581015504,120.0 50.5,120.0L47.0,120.0L47.0,91.0L47.0,62.0L50.5,62.0L54.0,62.0L54.0,72.06809421063818L53.99999999999999,82.13618842127637L57.04682590223581,79.96665701660935C60.873623011168945,77.2417371250504 66.7030020448004,76.41684790825244 71.33342356155039,77.94502481772344C86.09638743974503,82.81724226756083 87.31040622663056,111.15087693484246 73.07866880760267,118.6768007512024C67.33209371031941,121.71566277582927 62.26271911220065,121.66750624796883 57.639546840321906,118.53013680030122zM70.8940181916987,112.43572410191756C77.83537272521076,106.59495933682992 77.55881885741657,89.2170727065523 70.45039170613143,84.55945235107771C65.03394757014519,81.0104618465468 57.50274159228002,83.91729075997034 54.98981422447912,90.52679061987263C53.47982206508391,94.49837097426624 53.7854800932203,105.6844840973902 55.494288735954555,108.98895563318233C58.7932418428813,115.3684274869233 65.59852634992909,116.89158671690024 70.8940181916987,112.43572410191756z"/></svg>