<svg version="1.1" xmlns="http://www.w3.org/2000/svg" width="105" height="147" viewBox="0 0 105 147"><path stroke="none" fill="black" fill-rule="evenodd" d="M14.309016994374947,145.75C13.864057647468726,145.0625 13.35301021533451,133.475 13.17335603407669,120.0C12.886110625249623,98.4550971380399 13.107386085483107,93.99229737855107 15.007897682787508,83.0C16.664690649638118,73.41733761996252 17.118454247032307,67.11588836084348 16.95215155611884,56.0C16.686314701799866,38.23111857916284 16.55735473984866,39.30726407098069 19.11666483234147,37.93756287654413C20.79373817188796,37.04002046342562 21.554090029737587,37.12551860116674 22.777814022201703,38.34924259363028C25.408274190813174,40.97970276224052 25.682623226389495,67.76080383701026 23.21729488548179,81.25L21.252590736729623,92.0L24.538327159292837,92.0C33.200596316511046,92.0 57.580386289023046,85.25707073894472 58.60889992340121,82.57680717138891C58.83791191189953,81.98001149577625 59.61331749984072,73.77614579358153 60.332023452159405,64.34599449984509C61.656866948331725,46.962703643381126 63.00460682887916,41.999999999999936 66.40060826441224,41.99999999999999C69.60012053435449,42.00000000000004 70.10010915951516,44.52920972055055 69.09867619307857,55.648269757528276C66.85109978583662,80.6034468361735 66.84005703093958,82.0 68.89030911782638,82.00000000000001C69.91594991603549,82.00000000000003 71.29736974604928,82.65338233679327 71.96013096230149,83.45196074842946C73.93423361192384,85.83060892470162 72.74888850801307,88.42548914235525 69.21257007411114,89.4667419054457C67.17919927176621,90.06545862338362 65.76721934112334,91.2075168669583 65.50353000040181,92.4667419054457C64.3824088595315,97.820556389939 62.65935141569074,116.98411006679241 62.11048540374633,130.20361045175872C61.7299285102672,139.369366556836 61.0567851346543,145.34907595618103 60.32321593915211,146.0803945126067C59.62327012211543,146.77819284932804 58.061694853868424,146.98131645915024 56.46942084335676,146.5816811218982L53.79240980840932,145.90979412210046L54.28697969371822,130.20489706105025C54.558993130638115,121.5672036774726 55.337288829096984,109.8690879053508 56.01652569029348,104.20908423411286C56.69576255148997,98.54908056287493 57.00096437970408,93.6676310463703 56.694751975213705,93.36141864188035C56.38853957072334,93.0552062373904 53.644046025905624,93.73777738261047 50.59587743117433,94.87824340903612C47.547708836443036,96.01870943546174 39.82967199304119,97.85896013204008 33.44468444583689,98.96768940143241C27.059696898632595,100.07641867082475 21.441858840901432,101.22691621809325 20.960599873100982,101.52435061758463C19.94722729128629,102.15064931641336 20.834601620702404,137.66069571766477 22.003298317416956,143.25L22.787405317375896,147.0L18.952719653062896,147.0C16.843642537690744,147.0 14.753976341281168,146.4375 14.309016994374947,145.75zM23.750000000000007,17.250850314122026C37.08750000000001,17.093326202994827 58.91250000000001,17.093326202994827 72.25,17.250850314122026C85.5875,17.40837442524922 74.675,17.537257788898746 48.0,17.537257788898746C21.325000000000003,17.537257788898746 10.412500000000001,17.40837442524922 23.750000000000007,17.250850314122026z"/></svg>