<svg version="1.1" xmlns="http://www.w3.org/2000/svg" width="132" height="99" viewBox="0 0 132 99"><path stroke="none" fill="black" fill-rule="evenodd" d="M0.07028526261037815,96.25C0.13256680634299634,93.81315564737734 0.2384378683297268,93.72774956172898 1.0000000000000002,95.5C2.173714260892038,98.23138004998845 2.173714260892038,99.0 1.0,99.0C0.44999999999999996,99.0 0.03162836817467017,97.7625 0.07028526261037815,96.25zM47.326036659969894,97.61209600296732C42.167959198346466,96.21976203463237 41.89314707076591,95.94657568325248 41.78385701918643,92.10270364795282C41.72901645324953,90.17389023119335 41.17350820693365,89.0 40.31559583384542,89.0C38.84235843343736,89.0 36.91134493015255,85.04714961588333 37.718028859576336,83.68269196743472C37.983790197647146,83.23317254952381 37.21247508584539,82.60681837847224 36.00399527779465,82.29079380954234C34.21492096914705,81.82294036804718 33.909703879833444,81.20148060083275 34.36093574751375,78.94532126243122C34.948031102647164,76.00984448676418 32.939258191654346,73.30147252459595 31.043804876499912,74.47292709745005C30.45919124796615,74.83423819017032 29.999999999999996,74.28555013268347 30.0,73.2256836610415C30.0,72.18489098080188 29.674689451247275,71.00802278458049 29.277087669438387,70.61042100277174C28.8794858876295,70.21281922096298 28.452746773782312,68.30202391989715 28.328778527555748,66.36420922262545C28.14815695695607,63.54081577465586 28.36625804101184,63.05907774527034 29.42669085811736,63.9391588160554C31.95230417772482,66.0352317014421 30.94654815266482,59.681478019591296 28.375400806130195,57.29774889946244C27.068930362758582,56.086510794166784 25.999999999999996,54.68249326920703 26.0,54.177709955107424C26.000000000000004,52.906920452975854 33.18850788332313,51.2165770042627 41.22406314603414,50.59784389397461C44.922297876352914,50.31308195749911 48.97229787635292,49.40981737036022 50.22406314603414,48.59058925588822C53.50935023909357,46.44050599672278 61.00835129693476,45.39547869354068 61.97129109855133,46.95354802167637C63.4404017687825,49.33061901934549 77.7697983185848,47.888916343481505 79.99969323419451,45.1396826917461C80.82486195538753,44.122333577766426 82.2875,43.01383985657522 83.25,42.67636331132118C85.2604894442993,41.97143548593748 85.53254930278266,40.447167558554625 83.83512271550669,39.39810023421034C82.00618040006096,38.26775171980195 69.6781740573536,38.02220237883892 68.39097400222644,39.09048354154662C67.61015414247004,39.73850646877018 67.03544231211805,39.534744475845066 66.6246512920768,38.46424023740488C66.16670083001024,37.27084046301671 65.20803409914453,37.030680667659695 62.75786824298599,37.49555550488994C58.997631200993126,38.20899275178074 42.174895282740756,40.01505442192634 41.173045805420486,39.8128670676952C40.469444307925166,39.67087036216998 36.57299173105489,41.34790588547729 34.0,42.900150279457776C33.175,43.397859467395534 30.7,44.193422634787424 28.5,44.66806842921753C25.606947157166054,45.29223904963352 24.538435665179374,46.01105233334461 24.638888888888875,47.265530391363406C24.800774455145632,49.287186673558374 20.13280457680035,49.73280457679994 18.273215939152088,47.873215939152075C16.200469681681625,45.800469681682046 12.566929946534778,47.81781092977929 9.555472768544629,52.713306916627985C7.935982791244174,55.345988112482594 6.698482791244284,57.8375 6.80547276854487,58.25C6.912462745845457,58.662499999999994 6.550000000000375,58.99999999999999 6.000000000000242,59.0C5.4500000000001085,59.0 5.0,59.675 5.0,60.5C5.0,61.325 4.120390876395232,62.0 3.0453130586560704,62.0C0.30277682735599054,62.0 -0.1790651061198933,58.34545700615202 0.21059430252958933,40.5C0.5377042506534464,25.519156766262114 0.581524999201581,25.279713692650063 5.243400501075612,13.0C6.317586157202449,10.170518109141597 7.610006262924589,7.756033210371901 10.5,3.1796791516628176L12.5,0.012645258129040826L39.08102030188999,0.006322629064520413L65.66204060377999,0.0L66.72906062243906,2.25C69.96802102825157,9.079919575676314 70.88487097864035,12.132570252210982 71.52093038088697,18.204523915052C72.14227670952842,24.13602355606276 72.66882229425072,25.391685310401552 76.08771771691741,29.095015383281684C79.94120527446817,33.269093438648504 79.96787128173888,33.27913892221303 85.47609079908348,32.63175586854016C88.51424085958757,32.274680981184595 91.03443007275075,32.32395982048124 91.07651127277947,32.74126440031048C91.11859247280817,33.15856898013971 91.33591603671755,34.4 91.55945252591144,35.5C92.81527474034992,41.679771548099346 90.52192869057046,54.94136235202397 87.91926325606264,56.54989805189429C87.39700190093082,56.872673320376336 86.3178881649131,58.696760674708045 85.52123273157883,60.603425505964765C83.89493361673517,64.49570715952535 81.40052364461584,67.36557121442047 80.25767077647312,66.65924929776796C79.30396878822626,66.06982905389306 79.21553495465211,67.32440659042899 78.98247303839631,84.75L78.79188370071435,99.0L72.39594185035718,99.0L66.0,99.0L66.0,96.05901699437496C66.0,94.44147634128117 65.65450442798178,92.90450598228004 65.23223206218171,92.64352730770578C64.13798769550257,91.96724709709996 56.44936881489167,96.8401006557165 56.75,98.0193529704195C57.0662497673344,99.2598705501875 52.737395614744976,99.07279893805189 47.326036659969894,97.61209600296732zM92.0,97.60425347873061C92.0,96.78410374582094 90.65,95.3156075263999 89.0,94.34092854668387C86.51553803738649,92.8733207582818 86.01993436951939,91.96141369413573 86.11600135047522,89.0343924736001C86.17980209323659,87.09047661312005 86.41674530282974,86.175 86.64254181623775,87.0C87.29265763288304,89.37534911694215 93.18561794965429,92.33766561962028 96.75,92.08089119362897C99.0472558702885,91.91539923762743 100.0,92.27717319836894 100.0,93.31497423412586C100.0,94.12248957249456 101.15696773240363,95.07356435648344 102.57103940534141,95.42847375410116C107.15461342825311,96.5788776031707 104.66598939627747,98.48433272060815 98.17063099682736,98.79771740564684C93.23540979986744,99.03582939967265 92.0,98.79688835266164 92.0,97.60425347873061zM121.0,98.1549875621121C121.0,97.69023072127374 121.9136267942257,96.48315423903757 123.03028176494601,95.47259537936506C124.63626564616885,94.01919994190588 125.62691274621827,93.83439000055871 127.77056640902236,94.58827267050441C129.26106799254404,95.11245404030356 130.63043707176308,96.31953052253972 130.81360880728687,97.27066485325143C131.09393782252326,98.72629636497707 130.34368814387278,99.0 126.07332416321053,99.0C123.28299587344473,99.0 121.0,98.61974440295045 121.0,98.1549875621121zM16.5,97.0213699578552C7.563894226309619,95.01350824786196 5.968444474268046,91.83471690188661 6.099680025350619,76.2996599268842C6.154504039293461,69.80984696709788 6.511734438155553,63.37736304172827 6.893525356155268,62.005251203840615C7.6565466476260164,59.26304205944152 11.000000000000004,57.91541667781133 11.000000000000004,60.350079476938376C11.000000000000004,61.173279768786074 12.575000000000003,63.91016953146492 14.500000000000002,66.43205672733582C16.425,68.95394392320672 18.0,71.89105173403264 18.0,72.95896297361566C18.0,75.28989669205859 20.56844586784653,76.9256147104709 23.163108499854502,76.24709519004838C24.63294884589974,75.8627233050899 24.793124566045186,75.45565663869654 23.898630580925744,74.37785732223354C22.408569091753872,72.58244306430218 24.160938233690498,72.51585841742107 27.26356884443824,74.25C31.209801861735485,76.45565308230223 32.498006324050756,79.6951215693328 29.0,78.616631363961C27.9,78.27748411378245 26.113096415311954,77.72594067575555 25.029103145137675,77.39097927945677C23.569886494537524,76.9400712708592 23.959313421928343,77.73741046407157 26.529103145137675,80.46218136050412C30.02677735932441,84.17079643431506 30.842942284827515,86.0 29.0,86.0C28.45,86.0 28.0,86.45 28.0,87.0C28.0,87.55 29.125,88.0 30.5,88.0C33.05938389092246,88.0 33.17671554569174,88.25406460678387 33.38636363636364,94.25L33.5,97.5L26.5,97.5977213392018C22.65,97.65146807576279 18.15,97.39210995415682 16.5,97.0213699578552zM65.0,86.57142857142857C65.0,85.70714285714286 64.50185503811706,85.0 63.893011195815674,85.0C63.28152998386896,85.0 63.06544398820897,84.27183899147059 63.41026424766815,83.37325179934057C64.1923424873699,81.33518857607814 62.33749255546604,79.0 59.93657227893277,79.0C57.383543900690334,79.0 56.70776258299385,80.56490544013673 58.49080877808028,82.34795163522314C59.32086395013613,83.17800680727898 60.0,84.80827854468616 60.0,85.9707777183502C60.0,89.1136922652153 62.090709707207466,91.05214743564969 63.72154938530478,89.42130775755236C64.42469722338716,88.71815991946998 65.0,87.43571428571428 65.0,86.57142857142857zM114.07894736842105,89.30901699437496C114.00104975656137,87.14716730670584 115.31363257359311,85.73624204738785 117.74602921747628,85.36718693102029C120.1554987369367,85.00161043011336 120.09207467598426,87.01449496471268 117.66504904369673,87.93724846543215C116.31463425517188,88.45067525291941 114.97308212264215,89.46233257944198 114.68382208251955,90.1853758577045C114.39456204239696,90.90841913596702 114.12236842105264,90.51405764746873 114.07894736842105,89.30901699437496zM44.0,85.6549875621121C44.0,83.88539981283708 40.42762559415886,80.69079146861371 38.98610822876489,81.17129725707836C38.27768264502257,81.4074391183258 38.65603346217235,82.56429401553386 40.000824354795085,84.27391859807926C42.31920236555345,87.22125863478571 44.0,87.80170261966975 44.0,85.6549875621121zM125.63028604725343,81.75C124.672769178948,78.17703769024945 124.8082485202469,78.0 128.5,78.0C131.33333333333334,78.0 132.0,78.38095238095238 132.0,80.0C132.0,81.1 131.6625,81.94671052631578 131.25,81.88157894736841C130.8375,81.81644736842105 129.6,81.82333811695372 128.5,81.89689172188548C126.83245832979735,82.00839508662851 126.74934374734801,82.1917638544923 128.0,83.0C129.30396225467848,83.84268512980611 129.28653206354136,83.97137570549317 127.86663136396099,83.98468722548293C126.96827861413954,83.99310925146732 125.96192322162113,82.9875 125.63028604725343,81.75zM51.0,73.5C51.0,72.675 50.576557647468725,72.0 50.05901699437494,72.0C48.79803926711535,72.0 47.89492249472377,73.56158916139043 48.693853160104105,74.36051982677077C49.820037121183134,75.4867037878498 51.0,75.04641029286955 51.0,73.5zM18.558870364895114,57.46819662812954C16.986226365078515,56.278708519750765 16.91845899708737,56.0 18.201881560710788,56.0C19.073159017717092,56.0 20.045044195161868,56.675 20.36162639947696,57.5C21.05898474381135,59.31728671490096 21.00226323010225,59.3162860607032 18.558870364895114,57.46819662812954zM110.0,56.0C110.0,55.45 110.45,55.0 111.0,55.0C111.55,55.0 112.0,55.45 112.0,56.0C112.0,56.55 111.55,57.0 111.0,57.0C110.45,57.0 110.0,56.55 110.0,56.0zM103.0,50.191129635104886C103.0,49.19625093441257 103.66068848265829,47.50875093441257 104.46819662812953,46.441129635104886C105.2757047736008,45.3735083357972 105.95070477360079,43.44446672472992 105.96819662812953,42.15437049939982C105.98568848265829,40.864274274069714 106.84114105945459,38.614274274069714 107.86920235434351,37.15437049939982C108.89726364923246,35.69446672472992 110.61579009684266,30.65151003364943 111.68815001569953,25.94780007477651C113.52801887936026,17.877553001157295 113.54245316836139,17.2576562010356 111.94428487392335,14.94780007477651C111.0127991270896,13.60151003364943 108.42851531283897,9.687500000000002 106.20143195336638,6.2500000000000036L102.15218948159807,7.105427357601002e-15L111.94123604899781,-3.552713678800501e-15C120.36510198018644,-1.272447014641682e-14 122.1018402806522,0.29226730129832346 124.39454196888697,2.0957067121007675C125.94317115730043,3.31385860924276 127.74580588703886,3.9277850365991096 128.6994510619517,3.561837046770716C130.9567799501474,2.695618676723073 131.9666118678282,4.683145351148344 131.98468722548293,10.027759139826223C132.00161762675341,15.033826394844954 130.12020147980593,17.442742610195623 125.2653071691355,18.631078294443277C121.97735000926944,19.43587373824087 121.03588860626019,20.631291049532155 121.01531277451707,24.02749375659458C121.00689074853268,25.4176153227216 120.30064682437333,27.553454036355113 119.44588183194074,28.773802009113503C118.59111683950816,29.994149981871896 116.62173689277067,34.657762803771284 115.0694819503019,39.13738605777882C113.51722700783313,43.617009311786354 111.5165801834598,47.69103114925989 110.62360011836115,48.19076791883113C109.73062005326251,48.69050468840236 109.0,49.75201967603541 109.0,50.54969011357123C109.0,51.494478876269866 107.95431770452535,52.0 106.0,52.0C103.77232909489489,52.0 103.0,51.53431892943279 103.0,50.191129635104886zM57.0,31.813627641549196C57.0,30.781609162724553 56.2125,29.65929800751035 55.25,29.3196028521843C54.2875,28.97990769685825 52.52081246050589,27.821884974900417 51.32402769001308,26.74621902561134C48.88359703812094,24.552768525100056 46.1102692384689,25.22301372959445 48.0342560535459,27.541276019415115C48.656511019046306,28.291047384722276 49.30022845922634,30.130669667377678 49.464739253945964,31.629325536427118C49.6292500486656,33.12798140547656 50.57304629008197,34.94585331666026 51.56206423487123,35.66904089461312C53.0752905869623,36.7755390185641 53.64869735014793,36.722912090765234 55.180139339971305,35.336976137878885C56.18106270298709,34.431152943722196 57.0,32.845646120373836 57.0,31.813627641549196zM52.61570524608566,19.395016248101168C53.14119302582726,17.301306166611713 52.70333042603351,16.3270269771252 50.384757274300576,14.430979167151216C46.530623985992015,11.279204130343144 46.0,11.399928345854942 46.0,15.428571428571429C46.0,21.28815606892868 51.33739930305531,24.488192803922487 52.61570524608566,19.395016248101168zM68.8,16.8C70.6459570187895,14.954042981210494 70.22555498806757,13.707753317692376 67.95702572868993,14.300987045325822C66.61490654288711,14.651959096592462 65.50321672445479,14.177385844586958 64.71647893991862,12.91761840928681C63.58982393992641,11.113556995552806 60.0,10.183207119756107 60.0,11.695281138885473C60.0,12.853748505877943 65.29511363479442,18.0 66.487091204766,18.0C67.0991910421447,18.0 68.14,17.46 68.8,16.8zM80.66666666666666,14.333333333333332C79.45480280567996,13.12146947234662 79.97409538350432,10.223918142419736 81.50868391477067,9.635041269759181C83.62532181010361,8.822811099284815 88.0,10.664803344938338 88.0,12.368260348751967C88.0,14.53755781340095 82.37751698483103,16.044183651497693 80.66666666666666,14.333333333333332zM117.69264070792781,13.907359292072195C118.4828283184982,13.11717168150179 119.35042019774221,13.11717168150179 120.82689925383846,13.907359292072195C121.94978906472905,14.508311681432488 124.02310074616153,15.0 125.43425854591067,15.0C127.43723018578125,15.0 128.0,14.500659177633228 128.0,12.723439645667485C128.0,9.863966034133217 120.48456200013226,4.653106796563197 117.5,5.443222312300077C116.4,5.734429888913347 114.76498411378245,5.9788352408967125 113.86663136396099,5.986345316707557C111.3401257471161,6.007466472871214 110.9479463730714,9.664107153211319 113.16930863662833,12.488111653352586C115.36509073903397,15.279596248302935 116.09224934677182,15.507750653228173 117.69264070792781,13.907359292072195z"/></svg>