<svg version="1.1" xmlns="http://www.w3.org/2000/svg" width="133" height="100" viewBox="0 0 133 100"><path stroke="none" fill="black" fill-rule="evenodd" d="M31.0,98.5C31.0,97.675 31.45,97.0 32.0,97.0C32.55,97.0 33.0,97.675 33.0,98.5C33.0,99.325 32.55,100.0 32.0,100.0C31.45,100.0 31.0,99.325 31.0,98.5zM34.0,99.17319285008267C34.0,98.71844891762812 35.35,98.54452362917507 37.0,98.78669220907588C38.65,99.02886078897669 40.0,99.40092400643948 40.0,99.61349935899321C40.0,99.82607471154695 38.65,100.0 37.0,100.0C35.35,100.0 34.0,99.6279367825372 34.0,99.17319285008267zM77.0,98.58333333333334C77.0,97.80416666666667 77.52830295334695,96.99056568221769 78.17400656299321,96.77533114566893C78.81971017263949,96.56009660912017 77.91441906992631,95.36318661688243 76.16224855696393,94.11553116291839C72.13403818369719,91.24719237697245 72.99313798658724,89.65409609291856 78.1026251193127,90.51733840260802C80.64764101306348,90.94731607771489 82.0,90.79830351561208 82.0,90.08789783094296C82.0,89.48955402392433 81.28287117320053,89.0 80.40638038489007,89.0C79.5298895965796,89.0 78.5858012178475,88.13210534015265 78.30840620992984,87.07134520033921C77.80946808145967,85.16340286609437 73.19210193850463,83.85131521976173 68.5,84.28415262781665C64.00436647817999,84.69886620110478 48.980733453185024,82.68171151853421 48.029618276975185,81.53568784051063C47.29977872594309,80.65628497999279 47.60587613357397,79.76166475915916 49.098919180613834,78.41047937189015C51.15767820652495,76.5473280600546 51.21949141476117,76.55283744869733 53.005680485921,78.75868757818627C54.91338539291155,81.11460341266137 57.99999999999999,81.79896232450957 58.00000000000001,79.86601955938929C58.000000000000014,79.24233031705339 57.491500522461095,77.03481912835758 56.87000116102463,74.96043914006528C55.95974294100088,71.92226798019209 55.18189924285734,71.10692702188157 52.87000116102463,70.76761243075865C50.940409237371576,70.48440846958343 50.0,70.78113872986357 50.0,71.67319285008267C50.0,73.75927637358775 47.1896823542378,73.22294181273158 45.94624312203482,70.89955435471911C45.08202276784306,69.28474385181192 44.122184663124415,68.90183721749618 41.794797743974456,69.24342508724786C39.134189829771096,69.6339194146754 38.5982326509786,69.28268329474083 37.37031835956425,66.34387073252874C35.87813929140405,62.77258353338057 33.427418831646975,61.62059598449279 34.49800298128105,64.99370795117703C34.98376050556252,66.52419438572849 34.76707576123314,66.84784899041681 33.565390651838115,66.38671914699273C32.70442579332715,66.056335931544 32.0,64.96072500098306 32.0,63.952028190190646C32.0,61.66016653801012 30.610137652201363,60.77849087119859 26.402027801148478,60.4008881229515C24.587865700971612,60.23809945558315 21.797192253549515,59.42936423335972 20.200531251321593,58.603698740232765C18.014571052993986,57.4732947893693 17.013763121815956,57.38623687818407 16.148755623635417,58.25124437636461C15.322063297954859,59.07793670204516 15.000000000000009,59.08693311093896 15.000000000000014,58.283333333333346C15.000000000000018,57.669166666666676 15.529672942406195,56.99010901919795 16.177050983124854,56.77431633895839C17.99932342367683,56.16689219210772 16.323682344331363,54.298055156779824 13.269465269391773,53.53149546747606C11.757277853394138,53.151960585922446 10.1936699220398,52.31460983601386 9.794780977493247,51.670716023234746C9.395892032946692,51.026822210455634 7.1413844720598485,50.5 4.784764175522483,50.5L0.5,50.5L0.2328289800876462,25.249999999999993L-0.034342039824707626,-1.4210854715202004e-14L66.48282898008765,-7.105427357601002e-15L133.0,0.0L133.0,50.0L133.0,100.0L105.0,100.0C81.50980392156865,100.0 77.0,99.77182539682539 77.0,98.58333333333334zM28.345076606407254,91.45687193058737C28.019392015903826,90.60815149241043 27.976363593890287,89.69030307277637 28.249457890821613,89.41720877584505C28.52255218775294,89.14411447891374 28.986015729717785,89.83852211014941 29.279376872965713,90.96033684525769C29.902526869350844,93.34326609208266 29.210154340214054,93.71122836838727 28.345076606407254,91.45687193058737zM84.72916666666666,87.39583333333334C84.396875,87.06354166666667 83.534375,87.0280153508772 82.8125,87.31688596491227C82.01476730310263,87.63611233234239 82.2517236807213,87.87306870996106 83.41666666666666,87.92105263157895C84.47083333333333,87.96447368421053 85.06145833333333,87.728125 84.72916666666666,87.39583333333334zM39.5,82.04416214598524C37.02515719088177,81.54997430492443 36.82065878703705,81.31862367789137 38.33178746823579,80.72255426714457C40.91064523560768,79.7053157957142 44.0,79.82436635356173 44.0,80.94098300562504C44.0,82.39542986716845 42.76962888779569,82.69705647736524 39.5,82.04416214598524zM29.0,79.5C29.0,78.675 29.45,78.0 30.0,78.0C30.55,78.0 31.0,78.675 31.0,79.5C31.0,80.325 30.55,81.0 30.0,81.0C29.45,81.0 29.0,80.325 29.0,79.5zM17.8125,73.31688596491227C18.534375,73.0280153508772 19.396875,73.06354166666667 19.729166666666668,73.39583333333334C20.061458333333334,73.728125 19.470833333333335,73.96447368421053 18.416666666666668,73.92105263157895C17.251723680721298,73.87306870996106 17.01476730310263,73.63611233234239 17.8125,73.31688596491227zM66.0,72.0C66.0,70.7470775667013 64.93875921536355,70.7470775667013 63.0,72.0C61.78704114500002,72.7838742160732 61.930561717500034,72.97230471518621 63.75,72.98468722548293C64.9875,72.99310925146732 66.0,72.55 66.0,72.0zM69.5,72.0C69.16008130618755,71.45 68.4319660112501,71.0 67.8819660112501,71.0C67.3319660112501,71.0 67.16008130618755,71.45 67.5,72.0C67.83991869381245,72.55 68.5680339887499,73.0 69.1180339887499,73.0C69.6680339887499,73.0 69.83991869381245,72.55 69.5,72.0zM20.0,56.55901699437494C20.0,56.31647634128117 19.55,55.83991869381244 19.0,55.5C18.45,55.16008130618756 18.0,55.35852365871883 18.0,55.94098300562506C18.0,56.523442352531276 18.45,57.0 19.0,57.0C19.55,57.0 20.0,56.80155764746873 20.0,56.55901699437494zM7.83178746823579,36.984687225482936C9.921825848195374,36.97269257136025 10.174965461940353,36.75932099971486 9.0,36.0C6.510603318817725,34.391228305961775 2.0,34.78235483662449 2.0,36.606988804184326C2.0,37.66150975431879 2.5438038683678084,38.00530048429235 3.58178746823579,37.606988804184326C4.451770575765474,37.27314496188295 6.364270575765475,36.993109251467324 7.83178746823579,36.984687225482936z"/></svg>